inDegrees=no
num_controls=7
num_derivatives=13
num_iterations=180
num_multipliers=7
num_parameters=0
num_slacks=7
num_states=26
objective=5.750147
objective_accelerations=0.704529
objective_balance=0.006266
objective_effort=0.498543
objective_height=4.494062
objective_ligament=0.046747
solver_duration=1564.582881
status=Solve_Succeeded
success=true
DataType=double
version=3
OpenSimVersion=4.4-2022-07-23-0e9fedc
endheader
time	/jointset/ground_pelvis/pelvis_tilt/value	/jointset/ground_pelvis/pelvis_tx/value	/jointset/ground_pelvis/pelvis_ty/value	/jointset/hip_r/hip_flexion_r/value	/jointset/hip_r/hip_adduction_r/value	/jointset/hip_r/hip_rotation_r/value	/jointset/back/lumbar_extension/value	/jointset/patellofemoral_r/patellar_flexion_r/value	/jointset/knee_r/knee_flexion_r/value	/jointset/knee_r/knee_adduction_r/value	/jointset/knee_r/knee_rotation_r/value	/jointset/ankle_r/ankle_angle_r/value	/jointset/subtalar_r/subtalar_angle_r/value	/jointset/ground_pelvis/pelvis_tilt/speed	/jointset/ground_pelvis/pelvis_tx/speed	/jointset/ground_pelvis/pelvis_ty/speed	/jointset/hip_r/hip_flexion_r/speed	/jointset/hip_r/hip_adduction_r/speed	/jointset/hip_r/hip_rotation_r/speed	/jointset/back/lumbar_extension/speed	/jointset/patellofemoral_r/patellar_flexion_r/speed	/jointset/knee_r/knee_flexion_r/speed	/jointset/knee_r/knee_adduction_r/speed	/jointset/knee_r/knee_rotation_r/speed	/jointset/ankle_r/ankle_angle_r/speed	/jointset/subtalar_r/subtalar_angle_r/speed	/forceset/tau_hip_flexion_r	/forceset/tau_hip_adduction_r	/forceset/tau_hip_rotation_r	/forceset/tau_knee_flexion_r	/forceset/tau_ankle_angle_r	/forceset/tau_subtalar_angle_r	/forceset/tau_lumbar_extension	lambda_cid13_p0	lambda_cid14_p0	lambda_cid14_p1	lambda_cid14_p2	lambda_cid14_p3	lambda_cid14_p4	lambda_cid14_p5	/jointset/ground_pelvis/pelvis_tilt/accel	/jointset/ground_pelvis/pelvis_tx/accel	/jointset/ground_pelvis/pelvis_ty/accel	/jointset/hip_r/hip_flexion_r/accel	/jointset/hip_r/hip_adduction_r/accel	/jointset/hip_r/hip_rotation_r/accel	/jointset/back/lumbar_extension/accel	/jointset/patellofemoral_r/patellar_flexion_r/accel	/jointset/knee_r/knee_flexion_r/accel	/jointset/knee_r/knee_adduction_r/accel	/jointset/knee_r/knee_rotation_r/accel	/jointset/ankle_r/ankle_angle_r/accel	/jointset/subtalar_r/subtalar_angle_r/accel	gamma_cid13_p0	gamma_cid14_p0	gamma_cid14_p1	gamma_cid14_p2	gamma_cid14_p3	gamma_cid14_p4	gamma_cid14_p5
0	0.003988761388762209	0.12585928708136	0.9348364453020016	0.1934208783645156	-0.2094727809125263	-0.2328312417352785	-0.2903791543005566	0.2311793314021629	0.2311793314021609	0.09286257268716953	0.1533703702174398	0.08934340440958972	0.08696295513102618	0	0	0	0	0	0	0	0	0	0	0	0	0	0.113848450375853	-0.05639396577134447	0.001828173170556477	-0.23790340245161	0.1089866465788665	-0.05128418632458952	-0.03452833665985244	-29.22824212575097	-9.408114215085719	-20.20133178859574	-0.6050520425769106	7.818057614473505	-605.0699932096678	59.84042671006144	-2.157309078208347	-2.079747370305655	-0.9638398410475217	10.97671393722066	-0.06773825336110605	1.830515142426135	-6.588880674726203	11.03423588034254	11.0342358803425	-2.711169985134739	0.7869206475197353	2.850334767052875	0.7755450808843957	2.624084406212026e-08	1.856093051198642e-08	-2.176775268805759e-07	1.822498213875398e-07	4.160380317025844e-09	1.619688491765223e-07	-2.036872584649134e-07
0.01	0.003887721894155821	0.1257568405131145	0.9347896033298968	0.1939546806216628	-0.2094747820433928	-0.2327400902588425	-0.2907102506446669	0.2317201392103439	0.2317201392103745	0.09272699400502769	0.1534067048338462	0.08948335677403504	0.08700266328820563	-0.02013287834555214	-0.02036238111274674	-0.00934138577851814	0.1062436115507361	-0.000407799682312582	0.01815336179133545	-0.06574601779455004	0.1076532194556363	0.1076532194556358	-0.02696294897687366	0.007212872480014542	0.02789069890485672	0.00790355678302211	0.1097667630494619	-0.0599055414516797	0.002009427080846482	-0.2349420235955454	0.1050129204930518	-0.04670886635171886	-0.03065539887002288	-29.23532070603348	-10.47387600834494	-18.27345910931816	-1.05795041528597	7.437832221457898	-606.7974064805854	63.58415736294731	-1.930027346988159	-1.995442769342107	-0.9152042561081541	10.37065801221629	-0.02843974421186393	1.79624412054586	-6.496474677598328	10.55460840263437	10.55460840263438	-2.66595790838019	0.6803990250195431	2.743475721618813	0.7920371027821833	3.33910103959469e-08	-1.438256323225885e-09	-2.634058050808258e-07	1.827089377719669e-07	2.60339243408307e-08	7.468881247186042e-09	-2.193101533026147e-07
0.02	0.003587603589241286	0.125454578276225	0.9346501642380356	0.1955354136439465	-0.2094810889547819	-0.2324697056798676	-0.2916846096358793	0.2333222278979949	0.2333222278979955	0.09232636572214446	0.1535135538703805	0.08989922378141732	0.08712026223836947	-0.0398157620614574	-0.03996313372881591	-0.01851942395124185	0.2093861530301337	-0.0008611561064139034	0.03584662050501788	-0.128652529420251	0.2122561758896796	0.2122561758896801	-0.05300992013039479	0.01410288403112049	0.05518292858638171	0.01557815859688138	0.1056850757229132	-0.06341711713210786	0.002190680990939074	-0.2319806447395663	0.1010391944071757	-0.04213354637897915	-0.02678246108026679	-29.25597170812949	-11.45383066072233	-16.3439085578037	-1.495870969832469	7.078863185859218	-607.1619201959192	67.07714523650169	-2.067310152278919	-1.927421670970179	-0.9311703198886335	10.35649992295295	-0.07684960171886046	1.738494526895537	-6.020979440956355	10.42418327602397	10.42418327602423	-2.527974420464226	0.7223484617380231	2.730640922386489	0.7297540870518097	4.054117672977353e-08	-2.143744315843819e-08	-3.091340832810756e-07	1.83168054156394e-07	4.790746836463556e-08	-1.470310866821502e-07	-2.349330481403159e-07
0.03	0.003092555827237808	0.1249599344634166	0.9344194073307316	0.1981328833835705	-0.2094922960977686	-0.2320250892808243	-0.2932738981386874	0.235955448526204	0.2359554485261978	0.09167009763210444	0.153687993856151	0.09058483012232679	0.08731325981327803	-0.05910625865938572	-0.05885577402790454	-0.02763164720824017	0.309612719363234	-0.001381554841736052	0.05298402868523287	-0.1887895936292951	0.3138946403142898	0.3138946403142889	-0.07810217834608275	0.02072314178188342	0.08182217632530035	0.02298836441708096	0.1008977159466096	-0.06001926693558231	0.002339172205464596	-0.2285231433484772	0.09750244496277	-0.04237374572897985	-0.02263215172346444	-29.28923487270228	-12.58969577752563	-16.60469842715494	-1.502737060558999	7.091402311213049	-607.4167889943212	65.74814460131192	-1.846786454897204	-1.85369731886639	-0.9012318138643459	9.781473737622386	-0.03983550362713473	1.687509522781904	-5.947733283984605	9.959673472974504	9.959673472974131	-2.478654510225082	0.6226063837803174	2.613145629348021	0.7416789035525785	4.216013249510316e-08	-3.640281801219794e-08	-3.173849318274316e-07	1.373393053893057e-07	6.122661785770465e-08	-2.733029167003119e-07	-2.012121798097407e-07
0.04	0.002407229690982739	0.1242796618257195	0.9340975314938059	0.2017177665363539	-0.2095087473269499	-0.2314118696881428	-0.2954520899582077	0.2395902528881143	0.2395902528881156	0.09076714636231463	0.15392678480984	0.09153334472656476	0.08757936446119829	-0.07787143691120701	-0.07708889870655362	-0.0367432098756019	0.4068688356616825	-0.001909973344598146	0.06956725923334606	-0.2464331927625803	0.4125729226306999	0.4125729226306966	-0.1023465560859339	0.02697307761404053	0.107764581252358	0.03019957319922305	0.09611035617034934	-0.05662141673902804	0.002487663420028977	-0.2250656419573655	0.09396569551838166	-0.04261394507894013	-0.01848184236664175	-29.33364887431401	-13.6474729336034	-16.86504418675195	-1.494563429059869	7.113030283238889	-606.4351458976394	64.19434407803051	-1.962246483057462	-1.795518546882308	-0.9310382019613114	9.762409916022598	-0.07845355522685314	1.627659000475179	-5.522286425804552	9.832146854383998	9.832146854384026	-2.358398325296852	0.6482840780168606	2.591272360014256	0.689954679440295	4.366504268170089e-08	-5.126440292819577e-08	-3.248630498654598e-07	9.055616765002121e-08	7.436938808209877e-08	-3.989927232563877e-07	-1.66473914300438e-07
0.05	0.001536291069258289	0.1234204121932798	0.9336842302063274	0.2062610966742183	-0.2095308692673677	-0.2306356588363051	-0.2981937517135222	0.244197406493964	0.2441974064939744	0.08962670601055481	0.1542263797098555	0.09273784511118567	0.087916189746991	-0.09623224259370153	-0.09464376364825493	-0.0459379181023014	0.5013030682521648	-0.002513343513305376	0.08556640163999679	-0.3014927496818595	0.5083669594918303	0.5083669594918158	-0.1256015038411637	0.03287983577084367	0.1330254149536424	0.0371392624516736	0.0911403310975339	-0.05538193246550255	0.002668523258656008	-0.222522418135112	0.09094701852773358	-0.04106827112117577	-0.01426306654893486	-29.38755866520987	-14.43567010048603	-16.29450063290776	-1.628089426672398	6.839679376920335	-605.6006907484426	64.41100047588358	-1.760382836762848	-1.717865867852732	-0.9168985195654324	9.209811907537571	-0.05113953286545132	1.56979090358284	-5.43682903214091	9.379397499608434	9.379397499606732	-2.28808261503473	0.5519831264624973	2.476980181485776	0.6920036079352366	4.040116279603007e-08	-6.382285246964632e-08	-3.082500710452484e-07	-9.372641100476394e-09	8.289090249873522e-08	-5.053384108642317e-07	-8.532875003081338e-08
